<svg xmlns="http://www.w3.org/2000/svg" width="40" height="40" viewBox="0 0 40 40">
  <g id="Group_72" data-name="Group 72" transform="translate(-20 -67)">
    <g id="Ellipse_56" data-name="Ellipse 56" transform="translate(20 67)" fill="none" stroke="#e83a5c" stroke-width="3">
      <circle cx="20" cy="20" r="20" stroke="none"/>
      <circle cx="20" cy="20" r="18.5" fill="none"/>
    </g>
    <path id="Icon_material-cake" data-name="Icon material-cake" d="M12.615,5.41a1.8,1.8,0,0,0,1.8-1.8,1.716,1.716,0,0,0-.261-.929L12.615,0,11.074,2.678a1.716,1.716,0,0,0-.261.929A1.809,1.809,0,0,0,12.615,5.41Zm4.148,9.008-.965-.965-.974.965a3.2,3.2,0,0,1-4.409,0l-.965-.965-.983.965a3.1,3.1,0,0,1-2.2.911,3.133,3.133,0,0,1-1.767-.55v4.157a.9.9,0,0,0,.9.9H19.829a.9.9,0,0,0,.9-.9V14.779a3.133,3.133,0,0,1-1.767.55A3.1,3.1,0,0,1,16.763,14.418Zm1.262-6.3H13.517v-1.8h-1.8v1.8H7.205A2.7,2.7,0,0,0,4.5,10.821v1.389a1.77,1.77,0,0,0,1.767,1.767,1.731,1.731,0,0,0,1.244-.514l1.93-1.921,1.921,1.921a1.809,1.809,0,0,0,2.5,0l1.93-1.921,1.921,1.921a1.746,1.746,0,0,0,1.244.514,1.77,1.77,0,0,0,1.767-1.767V10.821A2.688,2.688,0,0,0,18.026,8.115Z" transform="translate(27.346 76.214)" fill="#282e34"/>
  </g>
</svg>
