<svg xmlns="http://www.w3.org/2000/svg" width="48.456" height="70.139" viewBox="0 0 48.456 70.139">
  <g id="Group_64" data-name="Group 64" transform="translate(-155.092 -146.101)">
    <g id="Group_62" data-name="Group 62" transform="translate(0 -126)">
      <g id="hook" transform="translate(72.516 269.312)">
        <path id="Path_101" data-name="Path 101" d="M97.221,20.639v31.22c0,8.126,6.217,14.713,13.886,14.713s13.886-6.587,13.886-14.713V41.224l-3.848,5.339a2.549,2.549,0,0,1-3.71.526,2.917,2.917,0,0,1-.5-3.931h0L130.283,31.87V51.859c0,11.221-8.586,20.318-19.176,20.318s-19.176-9.1-19.176-20.318V20.639C87.641,19.375,101.523,19.378,97.221,20.639Z" transform="translate(0 0)" fill="#fff" stroke="#fff" stroke-width="1.5"/>
      </g>
      <path id="Icon_feather-heart" data-name="Icon feather-heart" d="M20.338,6a5.131,5.131,0,0,0-7.265,0L12.083,7,11.093,6A5.141,5.141,0,1,0,3.828,13.28l.99.991,7.265,7.276,7.265-7.276.99-.991a5.149,5.149,0,0,0,0-7.276Z" transform="translate(155.019 269.854)" fill="none" stroke="#fff" stroke-linecap="round" stroke-linejoin="round" stroke-width="4.5"/>
    </g>
  </g>
</svg>
