<svg xmlns="http://www.w3.org/2000/svg" xmlns:xlink="http://www.w3.org/1999/xlink" width="149" height="136.399" viewBox="0 0 149 136.399">
  <defs>
    <filter id="tonite" x="0" y="42.399" width="149" height="94" filterUnits="userSpaceOnUse">
      <feOffset dy="3" input="SourceAlpha"/>
      <feGaussianBlur stdDeviation="7.5" result="blur"/>
      <feFlood flood-opacity="0.231"/>
      <feComposite operator="in" in2="blur"/>
      <feComposite in="SourceGraphic"/>
    </filter>
  </defs>
  <g id="Group_64" data-name="Group 64" transform="translate(-91.5 -146.101)">
    <g transform="matrix(1, 0, 0, 1, 91.5, 146.1)" filter="url(#tonite)">
      <text id="tonite-2" data-name="tonite" transform="translate(22.5 97.9)" fill="#fff" font-size="36" font-family="AvenirNext-Bold, Avenir Next" font-weight="700"><tspan x="0" y="0">tonite</tspan></text>
    </g>
    <g id="Group_62" data-name="Group 62" transform="translate(148.142 148.351)">
      <g id="hook" transform="translate(4.94 11.543)">
        <path id="Path_101" data-name="Path 101" d="M95.921,20.438V45.032c0,6.4,4.9,11.59,10.938,11.59S117.8,51.433,117.8,45.032V36.653l-3.032,4.206a2.008,2.008,0,0,1-2.922.414,2.3,2.3,0,0,1-.391-3.1h0l10.511-8.891V45.032c0,8.839-6.763,16.006-15.106,16.006S91.754,53.871,91.754,45.032V20.438C88.374,19.443,99.31,19.445,95.921,20.438Z" transform="translate(-91.097 -19.692)" fill="#fff" stroke="#fff" stroke-width="1.5"/>
      </g>
      <path id="Icon_feather-heart" data-name="Icon feather-heart" d="M16.514,5.685a4.042,4.042,0,0,0-5.723,0l-.78.781-.78-.781a4.05,4.05,0,1,0-5.723,5.731l.78.781,5.723,5.731L15.734,12.2l.78-.781a4.056,4.056,0,0,0,0-5.731Z" transform="translate(-2.323 -4.497)" fill="none" stroke="#fff" stroke-linecap="round" stroke-linejoin="round" stroke-width="4.5"/>
    </g>
  </g>
</svg>
